<?xml version="1.0" encoding="utf-8"?>
<!-- Generator: Adobe Illustrator 25.0.1, SVG Export Plug-In . SVG Version: 6.00 Build 0)  -->
<svg version="1.1" id="Layer_1" xmlns="http://www.w3.org/2000/svg" xmlns:xlink="http://www.w3.org/1999/xlink" x="0px" y="0px"
	 viewBox="155.031 134 55.9 37" style="enable-background:new 0 0 55.9 55.9;" xml:space="preserve">
	<style>* { fill: none; stroke:#fff; stroke-width: 2px; }</style>
  <g transform="matrix(1, 0, 0, 1, 155.030518, 125.801407)">
	  <g id="g4874_2_" transform="translate(-106.42 -552.93)">
      <path id="path2354_2_" class="st1" d="M 109.3 577.2 L 122.6 597.4 C 126.9 591.4 136.8 587.5 142.4 588.8 C 149.3 584.1 158 584 160.2 585.7 L 143.564 563.085 C 143.564 563.085 133.994 559.097 127.748 565.213 C 116.923 562.707 111.4 572 109.3 577.2 Z" style="clip-rule: evenodd; fill-rule: evenodd; stroke-linecap: round; stroke-linejoin: round;"></path>
		  <path id="path2356_2_" class="st2" d="M110.9,574.5l11.6,17.6c4.7-8.6,14.2-12.5,18.9-6.9c7.3-10.3,16.9-1,17.8-1l-15.5-21.1
			c0,0-11.3-3.8-15.6,2.7C123.8,562.5,113.5,566.8,110.9,574.5L110.9,574.5z" style="clip-rule: evenodd; fill-rule: evenodd; stroke-linecap: round; stroke-linejoin: round;"></path>
		  <path id="path3599_2_" class="st3" d="M128.1,565.9l13.6,18.2c1.7,2.6,5.2,7.3,2.7,10.7" ></path>
    </g>

  </g>
</svg>