<?xml version="1.0" standalone="no"?>
<!DOCTYPE svg PUBLIC "-//W3C//DTD SVG 20010904//EN"
        "http://www.w3.org/TR/2001/REC-SVG-20010904/DTD/svg10.dtd">
<svg version="1.0" xmlns="http://www.w3.org/2000/svg"
     width="225.000000pt" height="225.000000pt" viewBox="0 0 225.000000 225.000000"
     preserveAspectRatio="xMidYMid meet">
    <style>.body{fill:none;stroke:#fff;stroke-width:120;stroke-miterlimit:10; }</style>
    <g transform="translate(0.000000,225.000000) scale(0.100000,-0.100000)"
       fill="#fff" stroke="none">
        <path d="M265 2219 c-17 -4 -44 -22 -60 -39 -29 -30 -30 -36 -33 -131 l-4 -99
66 0 66 0 0 140 c0 77 -1 140 -2 139 -2 0 -17 -5 -33 -10z"/>
        <path class="body" d="M523 2211 c-58 -27 -76 -65 -81 -173 -4 -87 -4 -88 19 -88 31 0 76
-30 100 -66 16 -24 19 -48 19 -138 0 -93 -3 -114 -21 -143 -22 -36 -65 -63
-99 -63 -20 0 -20 -3 -20 -415 l0 -415 23 0 c29 0 74 -31 98 -66 16 -24 19
-48 19 -139 0 -101 -2 -114 -24 -146 -22 -33 -40 -44 -100 -63 -17 -6 -18 -15
-14 -89 6 -103 25 -142 81 -168 40 -18 76 -19 732 -19 424 0 704 4 726 10 19
5 48 24 65 41 l29 30 3 1012 c2 989 2 1013 -17 1044 -45 72 5 68 -786 70 -681
3 -712 2 -752 -16z m824 -662 c57 -21 113 -93 113 -144 0 -16 6 -25 15 -25 18
0 38 -45 30 -70 -3 -9 -19 -29 -35 -44 -17 -14 -30 -32 -30 -39 0 -28 -61
-104 -100 -126 -75 -42 -156 0 -201 103 -13 31 -29 56 -36 56 -17 0 -43 41
-43 67 0 13 9 32 19 42 11 11 25 38 31 59 5 22 20 52 32 67 42 54 139 79 205
54z m196 -528 c58 -53 67 -86 67 -245 0 -116 -3 -145 -14 -149 -97 -37 -515
-37 -612 0 -11 4 -14 33 -14 148 0 79 5 156 11 172 16 45 101 123 133 123 2 0
35 -50 73 -112 l68 -112 7 48 c4 31 3 55 -5 67 -16 25 2 54 33 54 30 0 49 -29
34 -52 -6 -11 -8 -39 -5 -68 l6 -50 69 118 69 117 26 -16 c14 -9 39 -28 54
-43z"/>
        <path d="M187 1792 c-23 -25 -21 -68 3 -92 17 -17 33 -20 118 -20 83 0 102 3
115 18 21 23 22 61 1 90 -14 20 -23 22 -118 22 -87 0 -105 -3 -119 -18z"/>
        <path d="M170 1125 l0 -415 65 0 65 0 0 415 0 415 -65 0 -65 0 0 -415z"/>
        <path d="M192 554 c-28 -19 -30 -74 -4 -97 28 -26 212 -24 235 1 23 25 21 68
-3 92 -17 17 -33 20 -113 20 -68 0 -99 -4 -115 -16z"/>
        <path d="M170 213 c0 -115 28 -164 108 -188 l22 -6 0 140 0 141 -65 0 -65 0 0
-87z"/>
    </g>
</svg>
