<?xml version="1.0" standalone="no"?>
<!DOCTYPE svg PUBLIC "-//W3C//DTD SVG 20010904//EN"
        "http://www.w3.org/TR/2001/REC-SVG-20010904/DTD/svg10.dtd">
<svg version="1.0" xmlns="http://www.w3.org/2000/svg"
     width="512.000000pt" height="512.000000pt" viewBox="0 0 512.000000 512.000000"
     preserveAspectRatio="xMidYMid meet">
    <metadata>
        Created by potrace 1.16, written by Peter Selinger 2001-2019
    </metadata>
    <g transform="translate(0.000000,512.000000) scale(0.100000,-0.100000)"
       fill="#fff" stroke="none">
        <path d="M487 5092 l-27 -28 0 -2180 c0 -1927 2 -2182 15 -2201 8 -12 39 -30
68 -41 168 -63 1988 -642 2017 -642 29 0 1849 579 2017 642 91 34 83 -103 83
1381 l0 1319 -29 29 c-41 41 -101 41 -142 0 l-29 -29 0 -1259 0 -1259 -900
-291 -900 -290 0 2027 0 2026 900 291 900 290 0 -407 0 -407 26 -27 c38 -37
110 -37 148 0 l26 27 0 500 0 501 -27 28 c-21 22 -36 28 -67 28 -26 0 -395
-114 -1017 -315 -538 -173 -982 -315 -989 -315 -7 0 -451 142 -989 315 -622
201 -991 315 -1017 315 -31 0 -46 -6 -67 -28z m1973 -2822 l0 -2027 -900 290
-900 291 0 2026 0 2027 900 -290 900 -291 0 -2026z"/>
        <path d="M1002 4275 c-63 -27 -62 -21 -62 -665 0 -615 1 -634 47 -658 43 -23
1059 -344 1088 -344 18 0 43 5 55 12 49 26 50 37 50 660 0 620 -1 634 -49 659
-26 14 -1069 351 -1084 351 -7 -1 -27 -7 -45 -15z m788 -444 l175 -57 3 -457
c2 -362 0 -457 -10 -457 -7 0 -191 58 -408 129 l-395 127 -3 461 -2 461 232
-75 c128 -41 312 -101 408 -132z"/>
        <path d="M987 2510 c-14 -11 -31 -36 -37 -54 -14 -45 7 -99 47 -119 37 -19
1025 -337 1066 -343 91 -14 150 112 82 176 -27 25 -1050 359 -1101 360 -17 0
-43 -9 -57 -20z"/>
        <path d="M993 1961 c-57 -36 -65 -120 -15 -164 25 -23 1054 -357 1099 -357 40
0 88 40 97 80 8 42 -16 95 -51 113 -37 19 -1027 337 -1067 343 -20 3 -42 -2
-63 -15z"/>
        <path d="M982 1402 c-34 -26 -47 -84 -27 -125 8 -18 23 -37 33 -43 34 -22
1056 -346 1089 -346 48 0 80 25 93 72 12 45 -4 95 -38 116 -39 25 -1051 344
-1088 344 -22 0 -49 -8 -62 -18z"/>
        <path d="M4045 4283 c-48 -12 -1035 -332 -1054 -342 -32 -18 -54 -68 -46 -108
9 -51 45 -83 93 -83 23 0 253 69 561 169 575 185 574 185 573 259 -1 50 -18
78 -58 97 -33 16 -36 16 -69 8z"/>
        <path d="M4486 3784 c-21 -21 -26 -36 -26 -74 0 -38 5 -53 26 -74 21 -21 36
-26 74 -26 38 0 53 5 74 26 21 21 26 36 26 74 0 38 -5 53 -26 74 -21 21 -36
26 -74 26 -38 0 -53 -5 -74 -26z"/>
        <path d="M3530 3566 c-272 -88 -509 -167 -527 -174 -97 -42 -65 -196 41 -196
17 0 266 76 554 169 578 187 572 184 572 262 0 36 -6 50 -29 74 -24 24 -37 29
-73 28 -26 -1 -237 -64 -538 -163z"/>
        <path d="M3515 3009 c-577 -188 -570 -185 -570 -265 0 -39 5 -50 33 -75 19
-17 44 -29 60 -29 30 0 1037 322 1085 347 56 28 66 119 19 166 -44 44 -73 37
-627 -144z"/>
        <path d="M3535 2402 c-286 -93 -530 -174 -543 -181 -52 -28 -52 -23 -52 -661
0 -508 2 -595 15 -620 18 -36 47 -52 89 -52 26 0 443 130 990 309 43 14 92 38
110 53 l31 28 3 586 c2 394 -1 600 -8 626 -12 43 -39 67 -86 75 -20 3 -180
-44 -549 -163z m428 -1003 c-8 -7 -792 -259 -805 -259 -5 0 -8 206 -8 458 l0
457 408 131 407 131 3 -456 c1 -250 -1 -458 -5 -462z"/>
    </g>
</svg>
