<?xml version="1.0" encoding="utf-8"?>
<!-- Generator: Adobe Illustrator 26.2.1, SVG Export Plug-In . SVG Version: 6.00 Build 0)  -->
<svg version="1.1" id="Lager_1" xmlns="http://www.w3.org/2000/svg" xmlns:xlink="http://www.w3.org/1999/xlink" x="0px" y="0px"
	 viewBox="0 0 512 512" style="enable-background:new 0 0 512 512;" xml:space="preserve">
<style type="text/css">
	.st0{fill:#FFB600;}
</style>
<path class="st0" d="M76.3,154.2c-2.9,3.5-7.1,5.6-11.6,4.9c-4.5,1.1-8.9-0.6-12-3.8l-48-48c-6.2-6.2-6.2-16.4,0-22.6
	c6.2-6.2,16.4-6.2,22.6,0l35.6,35.6l68.8-82.5c5.7-6.8,15.8-7.7,22.5-2c6.8,5.7,7.7,15.7,2.1,22.5L76.3,154.2z M76.3,314.2
	c-2.9,3.5-7.1,5.6-11.6,4.9c-4.5,1.1-8.9-0.6-12-3.8l-48-48c-6.2-6.2-6.2-16.4,0-22.6c6.2-6.3,16.4-6.3,22.6,0l35.6,35.6l68.8-82.5
	c5.7-7.7,15.8-7.7,22.5-2.1c6.8,5.7,7.7,15.8,2.1,22.5L76.3,314.2z M191.1,96c0-8.8,8.1-16,16-16H496c8.8,0,16,7.2,16,16
	c0,8.8-7.2,16-16,16H207.1C199.2,112,191.1,104.8,191.1,96z M191.1,256c0-8.8,8.1-16,16-16H496c8.8,0,16,7.2,16,16
	c0,8.8-7.2,16-16,16H207.1C199.2,272,191.1,264.8,191.1,256z M159.1,416c0-8.8,8.1-16,16-16H496c8.8,0,16,7.2,16,16s-7.2,16-16,16
	H175.1C167.2,432,159.1,424.8,159.1,416z M63.1,448c-16.8,0-32-14.3-32-32s15.2-32,32-32c18.6,0,32,14.3,32,32S81.7,448,63.1,448z"
	/>
</svg>
