<?xml version="1.0" encoding="utf-8"?>
<!-- Generator: Adobe Illustrator 23.0.2, SVG Export Plug-In . SVG Version: 6.00 Build 0)  -->
<svg version="1.1" xmlns="http://www.w3.org/2000/svg" xmlns:xlink="http://www.w3.org/1999/xlink" x="0px" y="0px"
	 viewBox="0 0 100 100" style="enable-background:new 0 0 100 100;" xml:space="preserve">
<style type="text/css">
	.st0{display:none;}
	.st1{display:inline;}
	.st2{stroke:#000000;stroke-width:1.14;stroke-miterlimit:10;}
	.st3{fill:none;stroke:#000000;stroke-width:4.67;stroke-miterlimit:10;}
	.st4{fill:#007960;}
	.st5{fill:#00A6B1;stroke:#00A6B1;stroke-width:1.29;stroke-miterlimit:10;}
	.st6{fill:none;stroke:#F15623;stroke-width:3.98;stroke-miterlimit:22.93;}
	.st7{fill:#F15623;}
	.st8{fill:none;stroke:#F15623;stroke-width:3.26;stroke-miterlimit:10;}
</style>
<g id="Layer_1" class="st0">
	<g class="st1">
		<polygon class="st2" points="89.72,16.56 65.33,3.27 40.94,16.56 39.72,14.34 65.33,0.39 90.93,14.34 		"/>
		<rect x="64.06" y="1.83" class="st2" width="2.53" height="13.61"/>
		<path class="st2" d="M69.89,55.81c-6.19,0-11.21-5.02-11.21-11.21s5.02-11.21,11.21-11.21h1.26v9.95h9.95v1.26
			C81.09,50.79,76.08,55.8,69.89,55.81z M68.62,36.01c-4.74,0.7-8.02,5.12-7.31,9.86c0.7,4.74,5.12,8.02,9.86,7.31
			c3.79-0.56,6.76-3.54,7.32-7.32h-9.86V36.01z"/>
		<path class="st2" d="M86.6,40.36H74.13V27.88h1.26c6.19,0.01,11.2,5.03,11.21,11.22V40.36z M76.65,37.83h7.33
			c-0.57-3.79-3.54-6.76-7.33-7.33V37.83z"/>
		
			<rect x="38.78" y="81.45" transform="matrix(0.4512 -0.8924 0.8924 0.4512 -42.4867 96.335)" class="st2" width="36.6" height="2.53"/>
		
			<rect x="72.34" y="64.39" transform="matrix(0.8922 -0.4517 0.4517 0.8922 -29.4139 42.1574)" class="st2" width="2.53" height="36.6"/>
		<rect x="64.06" y="66.37" class="st2" width="2.53" height="32.65"/>
		<path class="st2" d="M18.85,31.33L18.85,31.33c-5.14-0.01-9.31-4.18-9.31-9.32v-1.64c0.17-5.14,4.48-9.18,9.62-9.01
			c4.91,0.16,8.85,4.1,9.01,9.01v1.65c-0.01,5.14-4.17,9.3-9.31,9.31H18.85z M18.85,13.59c-3.75,0-6.78,3.03-6.79,6.78v1.64
			c0,3.75,3.03,6.78,6.78,6.79l0,0c3.74-0.01,6.77-3.04,6.78-6.78v-1.65C25.61,16.63,22.59,13.6,18.85,13.59z"/>
		<rect x="8.75" y="47.2" class="st2" width="2.53" height="51.82"/>
		<rect x="17.58" y="66.37" class="st2" width="2.53" height="32.65"/>
		<path class="st2" d="M28.92,99.02H26.4V40.43h23.26c1.34,0,2.42-1.08,2.42-2.42c0-1.34-1.08-2.42-2.42-2.42c0,0,0,0,0,0H18.84
			c-3.64,0-7.26,0.58-10.71,1.73c-2.52,0.83-4.21,3.18-4.21,5.83v20.28c0,0.92,0.75,1.67,1.67,1.67c0,0,0,0,0,0h4.44v2.53H5.59
			c-2.31-0.01-4.18-1.89-4.19-4.2V43.15c0.01-3.73,2.4-7.04,5.94-8.21c3.71-1.24,7.59-1.86,11.5-1.86h30.82
			c2.73,0,4.95,2.22,4.95,4.95s-2.22,4.95-4.95,4.95H28.93L28.92,99.02z"/>
		<polygon class="st2" points="92.07,65.1 34.58,65.1 34.58,46.2 32.05,46.2 32.05,67.63 89.39,67.63 		"/>
		<polygon class="st2" points="32.05,14.18 32.05,30 34.58,30 34.58,16.71 96.07,16.71 96.07,65.1 95.97,65.1 95.97,67.63 
			98.6,67.63 98.6,14.18 		"/>
	</g>
</g>
<g id="Layer_2">
	<g>
		<polygon points="57.01,74.97 39.88,74.85 33.56,0 66.44,0.02 60.47,62.39 55.82,66.47 61.33,4.69 38.65,4.67 44.18,70.2 
			57.04,70.29 		"/>
		<rect x="39.45" y="82.72" class="st3" width="20.29" height="15.29"/>
	</g>
</g>
<g id="Layer_3" class="st0">
	<g class="st1">
		<path class="st4" d="M60.27-43.64H38.14v-4.67h17.69c0.92-3.73,2.98-7.07,5.89-9.57c7.85-7.39,13.42-13.51,13.42-24.92
			c-0.06-14.97-12.24-27.06-27.22-27c-13.99,0.06-25.64,10.74-26.89,24.67h15.26c1.27-5.56,6.21-9.51,11.91-9.53
			c6.55,0.01,11.85,5.31,11.86,11.86c0,4.81-3.2,10-9.51,15.49c-4.89,4.59-8.64,10.1-10.17,14.45l-3-4.17
			c1.79-5.08,4.53-8.57,10.06-13.75c6.6-5.72,8-9.69,8-12c0.01-3.98-3.21-7.2-7.19-7.21c-0.02,0-0.03,0-0.05,0
			c-4.02-0.02-7.32,3.17-7.44,7.19v2.34H16.25v-2.34c0.01-17.55,14.24-31.78,31.79-31.77c17.54,0.01,31.76,14.23,31.77,31.77
			c0,13.25-6.46,20.39-14.9,28.34c-3,2.77-4.64,5.78-4.64,8.49V-43.64z"/>
		<path class="st4" d="M59.36-14.77H35.49v-23.38h23.87L59.36-14.77z M40.2-19.44h14.52v-14H40.2V-19.44z"/>
	</g>
</g>
<g id="Layer_4" class="st0">
	<g class="st1">
		<polygon class="st5" points="55.45,136.83 41.36,132.88 45.3,146.97 49.65,142.63 55.88,148.86 57.34,147.4 51.11,141.17 		"/>
		<polygon class="st5" points="85.68,162.96 82.56,162.96 82.56,116.04 4.35,116.04 4.35,162.96 1.23,162.96 1.23,112.92 
			85.68,112.92 		"/>
		<polygon class="st5" points="87.59,177.68 -5.72,177.68 -5.72,160.96 36.62,160.96 36.62,166.17 50,166.17 50,160.96 
			92.77,160.96 92.77,169.94 89.65,169.94 89.65,164.08 53.12,164.08 53.12,169.29 33.5,169.29 33.5,164.08 -2.6,164.08 
			-2.6,174.57 90.59,174.57 		"/>
	</g>
</g>
<g id="Layer_5" class="st0">
	<g class="st1">
		<path class="st6" d="M-156.66,123.29h44.91v9.49c0,3.31-2.69,6-6,6h-34.47c-3.31,0-6-2.69-6-6V69.33c0-3.31,2.69-6,6-6h34.48
			c2.59,0,6.68,0.86,6.51,5.87l-0.1,45"/>
		<polygon class="st7" points="-113.32,114.25 -109.34,114.26 -109.35,118.24 		"/>
		<line class="st6" x1="-158.21" y1="72.14" x2="-112.32" y2="72.14"/>
		<circle class="st8" cx="-135.13" cy="131.26" r="2.97"/>
		<path class="st6" d="M-103.33,79.88c8.38,12.4,8.66,28.58,0.73,41.27"/>
		<path class="st6" d="M-166.79,121.15c-7.71-12.3-7.71-27.92,0-40.22"/>
		<path class="st6" d="M-174.94,126.27c-9.67-15.43-9.67-35.02,0-50.45"/>
		<path class="st6" d="M-94.5,75.82c9.67,15.43,9.67,35.02,0,50.45"/>
		
			<text transform="matrix(1 0 0 1 -148.9077 112.8248)" class="st7" style="font-family:'FranklinGothic-DemiCond'; font-size:46.07px;">E</text>
	</g>
</g>
<g id="Layer_6" class="st0">
	
		<text transform="matrix(1.08 0 0 1 141.0816 99.8153)" style="display:inline;fill:#F3BD48; font-family:'ArialMT'; font-size:138.42px;">@</text>
</g>
</svg>
