<svg xmlns="http://www.w3.org/2000/svg" version="1.0" preserveAspectRatio="xMidYMid meet" viewBox="150 136 318.1 358.5"><metadata>Created by potrace 1.16, written by Peter Selinger 2001-2019</metadata><g transform="translate(0.000000,640.000000) scale(0.100000,-0.100000)" fill="#000000" stroke="none"><path d="M2300 5024 c-46 -20 -77 -50 -103 -99 -18 -35 -22 -61 -25 -218 l-4 -177 -274 0 c-298 1 -313 -1 -352 -57 -38 -55 -42 -89 -42 -339 0 -231 1 -245 20 -264 26 -26 60 -25 94 1 l26 20 0 238 c0 218 2 239 18 254 17 16 86 17 780 17 l762 0 0 -294 c0 -312 3 -340 49 -390 55 -60 82 -66 344 -66 l237 0 0 -1014 c0 -909 -2 -1016 -16 -1030 -14 -14 -125 -16 -1072 -16 -941 0 -1060 2 -1080 16 l-22 15 0 758 0 758 -23 21 c-29 27 -71 28 -97 2 -20 -20 -20 -33 -20 -787 0 -723 2 -770 19 -808 20 -46 69 -91 109 -103 15 -4 520 -7 1122 -7 1073 0 1096 0 1128 20 18 11 45 37 60 59 l27 39 5 1084 c3 596 3 1109 0 1142 l-5 58 -335 341 -335 342 -490 0 -490 0 3 162 c2 151 4 164 23 181 20 16 73 17 795 17 l773 0 3 -308 3 -309 27 -40 c17 -25 45 -49 75 -64 46 -23 56 -24 285 -24 l238 0 0 -1015 c0 -777 -3 -1019 -12 -1028 -8 -8 -62 -12 -178 -12 -155 0 -168 -1 -185 -20 -26 -29 -24 -79 4 -102 21 -16 43 -18 195 -18 182 0 227 10 268 56 49 56 48 14 48 1216 l1 1123 -72 75 c-40 41 -191 195 -337 343 l-265 267 -836 0 c-724 -1 -841 -3 -871 -16z m2240 -727 c0 -1 -102 -1 -227 1 -193 2 -230 5 -245 19 -16 15 -18 38 -18 247 l0 231 245 -248 c135 -137 245 -249 245 -250z m-950 -260 l244 -247 -227 0 c-214 0 -228 1 -247 20 -19 19 -20 33 -20 252 0 127 1 229 3 227 1 -2 112 -116 247 -252z"></path><path d="M1935 3940 c-26 -29 -24 -79 4 -102 22 -17 50 -18 435 -18 401 0 413 1 434 20 28 26 29 73 2 100 -19 19 -33 20 -438 20 -407 0 -419 -1 -437 -20z"></path><path d="M1520 3700 c-18 -18 -20 -33 -20 -168 0 -137 2 -150 20 -167 29 -26 79 -24 102 4 16 20 18 42 18 165 0 129 -2 144 -20 164 -26 28 -73 29 -100 2z"></path><path d="M1952 3380 c-26 -11 -45 -54 -37 -81 17 -51 -22 -49 815 -49 l779 0 15 22 c22 31 20 71 -5 94 -20 18 -49 19 -783 21 -445 1 -770 -2 -784 -7z"></path><path d="M1931 2784 c-27 -35 -26 -59 4 -89 l24 -25 551 0 c537 0 550 0 570 20 11 11 20 33 20 50 0 17 -9 39 -20 50 -20 20 -33 20 -574 20 l-555 0 -20 -26z"></path><path d="M1944 2192 c-21 -13 -34 -52 -28 -77 14 -57 -10 -55 725 -55 669 0 677 0 703 21 30 24 34 63 10 97 l-15 22 -692 0 c-381 0 -697 -4 -703 -8z"></path></g></svg>