<?xml version="1.0" encoding="utf-8"?>
<!-- Generator: Adobe Illustrator 23.1.0, SVG Export Plug-In . SVG Version: 6.00 Build 0)  -->
<svg version="1.1" id="Layer_1" xmlns="http://www.w3.org/2000/svg" xmlns:xlink="http://www.w3.org/1999/xlink" x="0px" y="0px"
	 viewBox="0 0 512 512" style="enable-background:new 0 0 512 512;" xml:space="preserve">
<style type="text/css">
	.st0{fill:#FFFFFF;}
</style>
<g>
	<path class="st0" d="M166.3,190.7c0,35.2,0,70.3,0,105.5c0,3,0,5.6,0,5.6s-3.2,0-5.8,0c-16.5,0-29.3-12.7-29.2-28.7
		c0.2-66.8,0.1-133.7,0.1-200.5c0-14.3,9-23.8,23.2-24c26.3-0.4,52.6-0.2,78.8-0.3c10.3,0,20.6,0,30.9-0.1
		c24.3-0.4,40.9,1.4,60.6,6.7c50.3,13.5,91.1,41.3,122.3,83.1c22.3,29.9,36.6,63.5,41.2,100.6c9.9,79.5-15,146.5-74.6,200
		c-31.8,28.5-69.4,46-111.5,51.7c-77.3,10.6-143.4-12.8-197.3-69.5c-15-15.8-26.9-33.8-36.4-53.5c-0.8-1.7-1.7-3.4-1.9-3.9
		c0-0.1-0.1-0.1-0.2-0.1c-0.5,0.3-2.3,1.2-4,2.1c-13,6.7-26,13.3-39.1,20c-1.3,0.7-5,2.4-5,2.4s0.4-4.1,0.6-5.6
		c1.7-14.7,3.4-29.4,5.2-44.2c2.8-23.8,5.7-47.6,8.5-71.4c3.1-26.1,6.1-52.3,9.2-78.4l0.6-5c0,0,2,3.1,2.7,4.3
		c13.5,20.8,27,41.6,40.5,62.4c19.5,30,38.9,60.1,58.4,90.1c1.5,2.4,3.1,4.9,3.1,4.9s-2.8,0.3-5.7,0.6c-15.7,1.7-31.4,3.5-47.1,5.2
		c-2.2,0.2-4.4,0.5-5.1,0.6c-0.1,0-0.2,0.1-0.1,0.2c0.3,0.6,1.4,2.8,2.4,4.8c27,53.3,69,88.5,126.6,104.3
		c71.8,19.7,150.2-4.6,198.6-61c33.2-38.7,49.3-83.5,48.3-134.5c-0.5-25.6-2.6-51-11.7-75.2c-24.9-66.3-71.6-108.8-139.9-127.2
		c-15.5-4.2-31.4-5.7-47.4-5.7c-35.6-0.1-71.2,0-106.8,0c-2.2,0-4.3,0-6.5,0.3c-5.6,0.9-9.2,5.1-9.3,10.6c-0.1,6,3.2,10.2,9.2,11.1
		c3.1,0.5,5.6,0.3,9.5,0.3c1.5,0,4.2,0,4.2,0s0,2.6,0,4.3c-0.1,16.7,0,33.3,0,50C166.3,152.7,166.3,171.7,166.3,190.7z"/>
	<path class="st0" d="M357.9,106.2C357.9,106.2,357.9,106.2,357.9,106.2c5.8,0.1,5.7,8.7,0,8.8c-0.1,0-0.2,0-0.2,0
		c-25.6,0-51.2,0-76.8,0c-10.5,0-21,0-31.4,0c-2.2,0-4.3,0.1-6.4,0.5c-5.2,1-8.6,5.3-8.6,10.7c0,5.6,2.6,9.2,8,10.6
		c2.1,0.5,4.3,0.6,6.4,0.6c46.9,0,93.8,0.4,140.7-0.2c14.9-0.2,30.5,10.5,30.2,29.9c-0.2,16.8,0,33.7,0,50.5c0,36.7,0,73.3-0.1,110
		c0,3.8-0.1,7.7-1,11.4c-3,12.2-13.8,20.6-26.7,20.7c-24.3,0.2-48.6,0.1-72.8,0.1c-23.1,0-46.2,0.1-69.3-0.1
		c-12.9-0.1-23.6-8.5-26.7-20.8c-0.9-3.7-1-7.6-1-11.4c-0.1-32.2,0-64.3,0-96.5c0-32.2,0.3-64.3-0.1-96.5
		c-0.3-18.9,9.5-28.5,27.9-28.4c35.3,0.2,70.5,0,105.8,0C356.2,106.2,357.1,106.2,357.9,106.2 M252.1,229.1
		c-0.9,37.1,38.1,64.6,73.5,46.1c3.1-1.6,4.8-1.3,7.2,1.1c13.8,14,27.7,27.9,41.6,41.7c2.1,2.1,4.5,4,7.1,5.4
		c4.5,2.3,9.3,1.5,12.5-1.7c3.4-3.4,4.5-9,2.1-13.4c-1.3-2.4-3.1-4.7-5.1-6.7c-13.9-14.1-27.9-28.1-42-42c-2.3-2.2-2.7-3.8-1-6.7
		c3.8-6.7,5.9-14.1,6.1-21.9c1-28-21.9-51.5-50.6-52.2C274.7,178.2,252.3,200.1,252.1,229.1z"/>
	<path class="st0" d="M211.7,219.6c0,35.2,0,70.3,0,105.5c0,2.8,0,5.7,0,5.7s-2.8,0-5.7,0c-17.7-0.1-29.2-12-29.2-30.2
		c0-46.8,0-93.7,0-140.5c0-18.5,0-37,0-55.5c0-2.3,0.1-4.7,0.4-7c1.8-11.7,9.7-19,21.5-20c2.5-0.2,5-0.3,7.5-0.3
		c26.8,0,53.6,0,80.3,0c1.2,0,2.3,0.1,3.5,0.1c0.1,0,0.1,0,0.2,0c5.8,0.1,5.7,8.7,0,8.9c-0.1,0-0.3,0-0.4,0c-20,0-39.9,0-59.9,0
		c-9.8,0-19.6-0.1-29.4,0.1c-6.4,0.1-10.6,4-11.1,9.8c-0.6,6.7,2.9,11.3,9.7,12.2c2.5,0.3,5,0.2,7.5,0.2c2.6,0,5.3,0.1,5.3,0.1
		s0,2.5,0,5c0,11.3,0,22.7,0,34C211.7,171.6,211.7,195.6,211.7,219.6z"/>
	<path class="st0" d="M337.4,229.7c-0.1,19.4-15.7,34.9-35,34.9c-19.2,0-35-15.9-35-35c0-19.5,15.7-35.1,35.4-35
		C322.1,194.6,337.5,210.2,337.4,229.7z"/>
</g>
</svg>
