<?xml version="1.0" standalone="no"?>
<!DOCTYPE svg PUBLIC "-//W3C//DTD SVG 20010904//EN"
        "http://www.w3.org/TR/2001/REC-SVG-20010904/DTD/svg10.dtd">
<svg version="1.0" xmlns="http://www.w3.org/2000/svg"
     width="512.000000pt" height="512.000000pt" viewBox="0 0 512.000000 512.000000"
     preserveAspectRatio="xMidYMid meet">
    <metadata>
        Created by potrace 1.16, written by Peter Selinger 2001-2019
    </metadata>
    <g transform="translate(0.000000,512.000000) scale(0.100000,-0.100000)"
       fill="#ffffff" stroke="none">
        <path d="M1498 4640 c-83 -14 -143 -62 -175 -140 -17 -43 -18 -101 -18 -1115
l0 -1070 29 -59 c33 -66 104 -129 164 -146 20 -5 67 -10 103 -10 l66 0 0 1118
1 1117 -76 2 c-42 1 -88 7 -103 13 -56 24 -67 110 -20 162 l29 33 684 0 c703
0 707 0 908 -42 179 -37 437 -137 567 -220 29 -18 54 -33 57 -33 6 0 138 -91
146 -100 3 -3 27 -24 55 -45 404 -321 671 -815 724 -1340 45 -448 11 -725
-138 -1115 -28 -74 -130 -257 -199 -355 -281 -405 -727 -702 -1202 -801 -335
-69 -642 -58 -975 38 -414 119 -810 407 -1055 768 -67 99 -117 182 -145 242
l-25 53 28 7 c15 4 135 18 267 33 132 14 250 28 263 30 l23 6 -29 42 c-42 60
-186 280 -192 292 -3 6 -26 42 -51 80 -118 178 -184 281 -188 290 -2 6 -21 35
-41 65 -21 30 -73 109 -115 175 -43 66 -112 172 -154 235 -42 63 -78 120 -81
125 -3 6 -26 42 -51 80 -25 39 -72 111 -105 160 l-58 90 -7 -50 c-9 -72 -18
-143 -34 -285 -9 -69 -27 -222 -41 -340 -14 -118 -32 -269 -39 -335 -8 -66
-21 -176 -29 -245 -18 -148 -51 -425 -71 -600 -8 -69 -18 -144 -21 -168 -3
-26 -1 -42 5 -42 6 0 116 54 244 120 l233 119 24 -47 c121 -234 243 -404 418
-581 298 -300 625 -491 1022 -595 617 -161 1283 -50 1813 305 552 369 913 974
978 1636 14 147 6 454 -16 583 -56 331 -184 648 -370 915 -27 39 -51 72 -55
75 -3 3 -16 19 -29 35 -347 455 -909 768 -1496 835 -106 12 -1376 12 -1447 0z"/>
        <path d="M1953 4350 c-77 -16 -130 -56 -169 -130 -18 -34 -19 -81 -19 -1120
l0 -1085 23 -42 c59 -112 140 -163 260 -163 l72 0 0 1114 0 1113 -79 5 c-93 5
-126 22 -140 73 -14 53 6 105 50 127 31 16 77 18 515 18 430 0 483 2 488 16
11 30 6 53 -16 68 -20 14 -81 16 -483 15 -253 -1 -479 -5 -502 -9z"/>
        <path d="M2403 4060 c-91 -19 -166 -97 -184 -194 -6 -33 -8 -441 -7 -1087 3
-1150 -2 -1072 72 -1162 21 -25 59 -56 84 -69 l47 -23 780 -3 c721 -2 783 -1
828 15 67 24 121 73 154 141 l28 57 0 900 c0 719 -3 907 -13 937 -20 56 -93
132 -152 157 -51 22 -51 22 -820 21 -829 0 -817 -1 -854 51 -9 13 -16 41 -16
63 0 31 7 45 36 72 l35 34 607 2 607 3 3 31 c7 67 34 64 -611 63 -320 -1 -601
-5 -624 -9z m723 -741 c80 -15 189 -67 246 -118 61 -55 132 -170 152 -247 29
-112 14 -249 -40 -355 l-23 -46 241 -239 c262 -261 289 -296 268 -359 -21 -64
-79 -90 -147 -65 -15 6 -139 122 -275 258 l-248 247 -29 -18 c-47 -28 -148
-57 -220 -63 -129 -11 -284 53 -384 160 -28 29 -66 87 -89 133 -37 76 -41 91
-45 185 -6 112 5 169 52 273 85 185 318 295 541 254z"/>
        <path d="M2910 3164 c-97 -35 -208 -153 -227 -242 -12 -55 -8 -161 7 -207 22
-67 76 -140 133 -176 74 -49 99 -58 176 -65 206 -19 383 144 383 353 0 140
-60 243 -182 311 -59 33 -72 37 -155 39 -64 2 -103 -1 -135 -13z"/>
    </g>
</svg>
