<?xml version="1.0" encoding="utf-8"?>
<!-- Generator: Adobe Illustrator 25.2.0, SVG Export Plug-In . SVG Version: 6.00 Build 0)  -->
<svg version="1.1" id="Layer_1" xmlns="http://www.w3.org/2000/svg" xmlns:xlink="http://www.w3.org/1999/xlink" x="0px" y="0px"
	 viewBox="0 0 100 100" style="enable-background:new 0 0 100 100;" xml:space="preserve">
<style type="text/css">
	.st0{fill:#9E263B;}
	.st1{fill:#D7B448;}
	.st2{fill:#184D78;}
	.st3{opacity:0.9;fill:#492A68;}
	.st4{fill:#492A68;}
	.st5{fill:none;stroke:#231F20;stroke-miterlimit:10;}
	.st6{fill:#1877F2;}
	.st7{fill:#FFFFFF;}
	.st8{fill:#CC027A;}
	.st9{fill:#1AB7EA;}
	.st10{fill:#1D9BF0;}
</style>
<path class="st4" d="M56.4,83.1c-0.2-0.2-0.3-0.4-0.3-0.5c0-0.2,0.7-1.1,0.7-1.2C57,81,57,80.2,57.3,80c0.3-0.4,1.2-0.2,1-1.2
	c1.7,0,2.6-0.2,2.8-2.2c-0.3-0.2-0.2-0.1-0.3-0.3c0.1,0.3,1.3-0.2,1.4,0.1c0.1,0.2,1.7-2.1,1.9-2.3c0.4-0.5,0.8-0.8,1.1-1.4
	c0.1-0.2,0.2-0.9,0.5-1.2c0,0.1,0,0.1-0.1,0.2c0.6-0.9,1.2-0.7,2.2-1.2c0.8-0.3,0.2-0.2,0.8-0.8c0.7-0.7,0.8-0.2,1.1-1.4
	c0.2-0.8-0.1-1.6,0.2-2.3c0.3-0.9,1.1-1.2,1.7-2.1c0.4-0.6,0.8-1.6,0.2-2.3c-0.4-0.5-1.9-0.9-2.5-1.1c-0.7-0.2-1.6-0.2-2.3-0.5
	c-0.8-0.3-1.4-1.2-1.9,0.2c-0.2-0.1-0.7-0.4-0.7-0.6c0,0.3,0.7-0.2,0.9-0.4c-0.3,0-1.5,0.2-1.7,0.2c0.1-0.3,0.7-1.1,0.7-1.2
	c0.1-0.8-1.1-1.7-1.7-2c-0.8-0.2-1.3-0.2-2.2-0.7c-0.9-0.7-1.7-1.4-3-1.5c-0.2,0-0.5,0.1-0.7,0.1c-0.6-0.1-0.8-0.5-1.3-0.6
	c-0.7-0.2-0.9,0.4-1.2,0.4c-0.6,0-0.7-0.6-1.5-0.1c-1.2,0.7-0.6,1.2-2,0.8c-0.7-0.2-1.6,0.2-2.3-0.2c-0.7-0.4-0.7-1.7-0.2-2.3
	c-0.3,0.2-0.3-0.6-0.5-0.7c-0.3-0.2-0.9,0-1.3-0.1c-0.6-0.2-0.9-0.2-0.7-0.7c0.2-0.6,1.7-2.3,0.1-2.3c-0.9,0-1.2,1.3-2.2,1.5
	c-1,0.2-2-0.2-2.6-1.1c-1.1-2,0.7-4.3,2.6-4.5c1.4-0.2,3.6-1.2,4.7,0.4c0.3,0.4,1.1,2.3,1.4,1.1c0.1-0.3-0.3-1.9-0.4-2.6
	c0.2-0.4,0.7-0.7,1.1-1.1c-0.1,0-0.1,0.1-0.2,0.2c0.3-0.3,1.3-0.8,1.5-1.3c0.1-0.2-0.3-0.7-0.1-1c0.2-0.3,0.6-0.2,0.7-0.3
	c0.2-0.2,0.2-0.7,0.5-1.1c0.3-0.4,0.7-0.3,1-0.6c0.6-0.5,0.7-1.2,1.4-1.4c0.7-0.4,1.3-1.2,2.3-0.8c-0.3,0.3-1.1,0.6-1.2,0.8
	c-0.2,0.2,1.1,0.1,1.2,0c0.7-0.2,1.2-0.8,2-1.2c1-0.7,2.3-0.7,3.6-0.5c0.4,0.1-0.7-1.5-0.8-1.6c-0.4-0.5-0.5-0.9-1.2-0.3
	c-0.2,0.2-0.4,0.8-0.6,1.1c-0.4,0.8-0.3,0.7-1.3,1.2c0.1,0,0.1-0.1,0.2-0.1c-0.7,0.2-1.4,0.4-1.7-0.4c-0.1-0.3,0.3-0.7,0.1-1
	c-0.5-0.7-2.3,0.7-2.8,0.9c0.3-2.5,3.2-1.2,4.7-1.6c0.4-0.2,2.1-0.7,2.2-1.1c0.2-0.6-1.2-1.5-1.5-1.7c-0.7-0.6-1-0.9-1.4-1.7
	c-0.4-0.9-0.7-2-1.7-1.2c-0.3,0.2-0.1,0.8-0.7,0.9c-0.4,0.1-0.8-0.4-1.1-0.7c-0.3-0.3-0.7-1.2-1.3-1.3c-0.6-0.1-2.2-0.8-2.8-0.3
	c-0.9,0.5-0.3,2.1-0.1,2.6c0.3,1.2,0.6,1.2-0.4,2c-0.5,0.3-0.7,0-0.6,0.9c0.1,0.5,0.7,0.6,0.2,1c-0.2,0.2-0.8,0.2-1.1,0.1
	c-0.8-0.4-0.1-0.9-0.5-1.5c-0.3-0.4-2.1-0.7-2.6-1c-1.2-0.6-4.7-1.2-3.6-3.2c0.2-0.5,1.3-1.3,1.7-1.6c0.5-0.3,1.1-0.4,1.5-0.8
	c0.2-0.2,0.2-0.9,0.4-1.1s1.1-0.2,1.6-0.1c2-0.4,0.2-3.2,2.7-2.7c0.7,0.2,1.4,0.8,2.1,1.2c0.7,0.4,0.8,0.4,0.7,1.1
	c-0.1,0.2-0.7,0.8-0.9,1c-0.3,0.2-0.9,0.4-1.2,0.6c1.3,0,2-0.1,3.1,0.7c0.9,0.6,1.5,1,2.7,1c-0.1-0.6-1.1-0.3-1-0.9
	c0-0.5,0.6,0.2,0.7,0.2c0.3,0,1.2,0.4,1-0.5c-0.2-0.7-1.9-0.4-1.3-1.7c0.7-0.1,0.6,0.7,1.1,0.9s1.2-0.5,1.3-0.9
	c-0.7-0.4-3.2-1-2.9-2.2c1.5,1,3.2,2.1,4.7,3c-1.2,1.1,0.9,0.5,1,0.5c0.3,0.1,1.3,0.9,0.7,1.1c-0.7,0.2-1-0.7-1.6-0.1
	c0.5,0.2,2.5,0.2,2,1.2c-0.2,0.4-1.4,0.3-1.7,1.2c0.2-0.1,0.5,0,0.8,0c-0.6,0.9,0.2,1.5,0.7,2.3c0.5,0.8,1.2,2.2,2.4,2.4
	c2.3,0.6,2.1-3.2,3.7-3.7c0.5-0.2,1-0.1,1.5-0.2c0.5-0.2,0.8-0.5,1.2-0.8c0.9-0.7,1.7-0.7,2.8-0.7c3.4,3.4,6.1,7.6,7.7,12.2
	c-0.2,0.1-0.3,0.2-0.4,0.3c-0.2,0.2-0.2,0.3-0.2,0.6c-0.1,0.1-0.2,0.2-0.2,0.2c-0.2,0.3,0,0.7,0,1.1s-0.2,0.7,0.1,1.1
	c0.2,0.3,0.5,0.7,0.8,0.9c0.2,0.2,0.6,0.5,0.9,0.5c0.1,0,0.3,0,0.5-0.1c0.1,0.5,0.2,1,0.2,1.5c-0.3,0.3-0.7,0.7-0.9,1.1
	c-0.2,0.5-0.2,0.8-0.7,1.2c-0.4,0.4-0.9,0.5-1.3,1c-0.3,0.5-0.3,0.8-0.6,1.3c-0.2,0.2-0.5,0.3-0.6,0.7c-0.3,0.7,0.1,1.7,0,2.6
	c0,0.9-0.3,1.7,0.2,2.6c0.5,0.7,1.2,1.5,2,2.1c0.4,0.4,0.9,0.7,1.4,0.9C79.3,70.9,69.1,80.6,56.4,83.1 M16.3,49.9
	c0-8,2.8-15.3,7.5-21.1c0.6,0.4,1.2,0.9,1.4,1.1c0.6,0.5,0.8,1.1,1.2,1.7c0,0,0.3,0.5,0.4,0.7c0.4,0.4,0.7,0.8,0.7,1.3
	c0.1,0.6-0.2,1.2-0.2,1.9c-0.2,2.1,0.1,3.9,1.7,5.3c0.4,0.4,1,0.6,1.4,1c0.4,0.4,0.4,0.7,0.7,1.2c0.7,1.2,1.7,2.4,2.6,3.5
	c0.7,1,1,0.7,0.3-0.2c-0.5-0.7-1.1-1.3-1.5-2.2c0-0.1-0.4-1.1-0.3-1c1.1,0.2,1.3,1,2.2,2c0.7,0.9,1.3,1.4,1.7,2.5
	c0.5,1.2,1.2,1.9,2.5,2.5c0.6,0.2,1.6,1,2.3,1.1c0.7,0.1,1.2-0.4,1.9-0.1c0.5,0.2,0.8,0.9,1.4,1.2c0.6,0.2,0.9-0.1,1.5,0.3
	c0.7,0.4,0.8,1.2,1.4,1.6c0.4,0.3,1,0.7,1.6,0.8c0.4,0.1,0.8-0.2,1.2-0.1c0.7,0.2,0.8,1.1,0.7,1.7c-0.2,0.7-0.9,1.2-1.2,2.1
	c-0.2,0.7-0.1,1.2-0.2,2c-0.1,0.7-0.7,0-0.1,1.2c0.2,0.5,0.6,1,0.9,1.5c0.7,1,1.1,1.9,2,2.7c0.6,0.6,2,1.2,2.3,2.1
	c0.2,0.7,0.1,2.4-0.1,3.2c-0.2,1.6-0.2,3.6-0.7,5.1c-0.4,1.4-0.9,2-0.6,3.5c0.2,0.7,0.2,0.3,0,1.2c-0.1,0.2,0,0.3-0.1,0.6
	c-0.2,0.5-0.7,0.8-0.9,1.4c0.7,0,0.7,0.2,0.6,0.5c-0.9,0.1-1.7,0.2-2.7,0.2C31.4,83.7,16.3,68.6,16.3,49.9 M42,18.3
	c0.6,0.6,1.2-0.3,1.7-0.6c1.2-0.7,3.1-0.7,4.5-1C48,17.3,46,17,45.2,17.3C44.2,17.6,44.7,18,44,19c0.2,0,0.6,0.2,0.8,0.1v0.2
	c-0.6-0.1-1.2-0.3-1.3,0.4c-0.7-1.2-1.3-1.1-2.3,0c0.8,0.5,1.7,1,1,1.9c-0.8,0.9-1.2-0.2-0.5-0.7c-0.7-0.3-1.3-0.9-2-0.2
	c0.2,0,0.5,0.1,0.7,0.1c-0.2,0.2-0.2,0.8-0.4,0.9c-0.3,0.2-1.5-0.2-1.9-0.2c-0.9-0.1-1.7-0.1-2.7,0c0.2,1.1-1.1,0.1-1.5-0.2
	c0.8-0.8,1.7-0.5,2.8-0.4c0.7,0.1,2,0.1,2.1-0.9c-0.8-0.2-1.2-0.2-1.7-0.7c0-0.1-0.1-0.2-0.1-0.2c1.5-0.6,3.2-1.1,4.7-1.5
	C41.7,17.6,41.6,18,42,18.3 M55.3,17.5c-0.5,1.5-3.2,0.5-4.2,0.5c0.8-0.3,2.2-0.7,2.9-1.3c0.1-0.1,0.1-0.1,0.2-0.2
	c0.5,0.1,0.9,0.2,1.4,0.2c-0.4,0.2-0.8,0.3-1.2,0.6C54.6,17.4,54.9,17.4,55.3,17.5 M50,11.7c-21.1,0-38.3,17.2-38.3,38.3
	S28.8,88.3,50,88.3c21.2,0,38.3-17.2,38.3-38.4C88.3,28.8,71.1,11.7,50,11.7"/>
</svg>
