<svg id="Layer_1" data-name="Layer 1" xmlns="http://www.w3.org/2000/svg" viewBox="54.19 63.5 91.62 72.97"><defs><style>.cls-1{fill:none;}.cls-2{fill:#62358c;}</style></defs><title>WEB ICONS PURPLE</title><circle class="cls-1" cx="100" cy="100" r="100"></circle><path class="cls-2" d="M144.74,63.5a1.13,1.13,0,0,1,1.07,1.21V76.35h-15V64.71a1.14,1.14,0,0,1,1.07-1.21Zm-47.12,0a1.14,1.14,0,0,1,1.08,1.21V76.35h-15V64.71a1.14,1.14,0,0,1,1.07-1.21Zm24.63,9.64v9.64h-15V73.14a1.07,1.07,0,0,1,1.07-1.07h12.85A1.06,1.06,0,0,1,122.25,73.14Zm23.56,7.5v38.55h-15V80.64Zm-47.11,0v38.55h-15V80.64Zm23.55,6.42v34.27h-15V87.06Zm23.56,36.41v11.65a1.13,1.13,0,0,1-1.07,1.2H131.89a1.14,1.14,0,0,1-1.07-1.2V123.47Zm-47.11,0v11.65a1.14,1.14,0,0,1-1.08,1.2H84.77a1.14,1.14,0,0,1-1.07-1.2V123.47Zm23.55,2.14v9.64a1.06,1.06,0,0,1-1.07,1.07H108.33a1.07,1.07,0,0,1-1.07-1.07v-9.64Z"></path><path class="cls-2" d="M82.43,80.62a1,1,0,0,1,.77,1.25l-2.52,9.37-14.47-3.9L68.73,78A1,1,0,0,1,70,77.28l12.41,3.34ZM79.57,95.37l-7.24,26.89-14.48-3.9,7.24-26.88Zm-8.35,31-2.52,9.37a1.05,1.05,0,0,1-1.3.69L55,133.12a1,1,0,0,1-.77-1.25l2.52-9.37,14.48,3.9Z"></path></svg>