<?xml version="1.0" encoding="utf-8"?>
<!-- Generator: Adobe Illustrator 26.0.3, SVG Export Plug-In . SVG Version: 6.00 Build 0)  -->
<svg version="1.1" id="Layer_1" xmlns="http://www.w3.org/2000/svg" xmlns:xlink="http://www.w3.org/1999/xlink" x="0px" y="0px"
	 viewBox="0 0 543.5 613.1" style="enable-background:new 0 0 543.5 613.1;" xml:space="preserve">
<style type="text/css">
	.st0{fill:none;}
	.st1{fill:#fff;}
	.st2{fill:#fff;}
	.st3{fill:url(#SVGID_1_);}
	.st4{fill:url(#SVGID_00000085234770754271569590000000048214347130496674_);}
	.st5{fill:url(#SVGID_00000109735774931360034480000013645378576469909122_);}
	.st6{fill:url(#SVGID_00000089531751274511552610000003599580694893384626_);}
	.st7{fill:url(#SVGID_00000049202759987135659050000017474424359427680145_);}
	.st8{fill:url(#SVGID_00000181065192443853147370000008170270632959406745_);}
	.st9{fill:url(#SVGID_00000091012782837580005360000014645733344603367048_);}
	.st10{fill:url(#SVGID_00000050636109901436210350000015187620503540911264_);}
	.st11{fill:url(#SVGID_00000182487638995540852850000011696174891579316659_);}
</style>
<pattern  x="-43" y="613.1" width="68.3" height="70.2" patternUnits="userSpaceOnUse" id="New_Pattern_Swatch_1" viewBox="0 -70.2 68.3 70.2" style="overflow:visible;">
	<g>
		<rect y="-70.2" class="st0" width="68.3" height="70.2"/>
		<rect y="-70.2" class="st1" width="68.3" height="70.2"/>
	</g>
</pattern>
<g>
	<g>
		<path class="st2" d="M532.7,55.3H122.1c-1.7-12.5-7.4-24.1-16.5-33.2C94.5,11.1,79.9,5,64.3,5C32.2,5,6,31.2,6,63.3v487.4
			C6,582.9,32.2,609,64.3,609h51c0,0,0,0,0,0h361.4c4,0,7.3-3.3,7.3-7.3V558h48.7c4,0,7.3-3.3,7.3-7.3V62.6
			C540,58.5,536.7,55.3,532.7,55.3z M20.6,63.3c0-24.1,19.6-43.7,43.7-43.7c11.7,0,22.7,4.6,30.9,12.8c8.2,8.2,12.7,19.1,12.8,30.7
			v449.2c-10.7-12.1-26.3-19.8-43.7-19.8c-17.4,0-33,7.7-43.7,19.8V63.3z M469.5,594.4H115.3c0,0,0,0,0,0h-51
			c-24.1,0-43.7-19.6-43.7-43.7c0-24.1,19.6-43.7,43.7-43.7c24,0,43.6,19.5,43.7,43.5v0.2c0,3,1.8,5.6,4.5,6.7
			c0.9,0.4,1.8,0.6,2.8,0.6c0,0,0,0,0,0h354.1V594.4z M525.4,543.4H122.6V69.9h402.8V543.4z"/>
	</g>
	<g>
		<pattern  id="SVGID_1_" xlink:href="#New_Pattern_Swatch_1" patternTransform="matrix(1 0 0 1 -10.7064 -4.4432)">
		</pattern>
		<path class="st3" d="M172.3,125.4h316c4,0,7.3-3.3,7.3-7.3c0-4-3.3-7.3-7.3-7.3h-316c-4,0-7.3,3.3-7.3,7.3
			C165,122.1,168.3,125.4,172.3,125.4z"/>
	</g>
	<g>
		
			<pattern  id="SVGID_00000018922880575684731740000010552262734645553842_" xlink:href="#New_Pattern_Swatch_1" patternTransform="matrix(1 0 0 1 -10.7064 -4.4432)">
		</pattern>
		<path style="fill:url(#SVGID_00000018922880575684731740000010552262734645553842_);" d="M172.3,172.6h316c4,0,7.3-3.3,7.3-7.3
			c0-4-3.3-7.3-7.3-7.3h-316c-4,0-7.3,3.3-7.3,7.3C165,169.3,168.3,172.6,172.3,172.6z"/>
	</g>
	<g>
		
			<pattern  id="SVGID_00000181807842099515706970000001833781649776836520_" xlink:href="#New_Pattern_Swatch_1" patternTransform="matrix(1 0 0 1 -10.7064 -4.4432)">
		</pattern>
		<path style="fill:url(#SVGID_00000181807842099515706970000001833781649776836520_);" d="M173.6,219.8h314.7c4,0,7.3-3.3,7.3-7.3
			c0-4-3.3-7.3-7.3-7.3H173.6c-4,0-7.3,3.3-7.3,7.3C166.3,216.6,169.6,219.8,173.6,219.8z"/>
	</g>
	<g>
		
			<pattern  id="SVGID_00000116913526547406256160000003691118479571271053_" xlink:href="#New_Pattern_Swatch_1" patternTransform="matrix(1 0 0 1 -10.7064 -4.4432)">
		</pattern>
		<path style="fill:url(#SVGID_00000116913526547406256160000003691118479571271053_);" d="M173.6,267.1h314.7c4,0,7.3-3.3,7.3-7.3
			c0-4-3.3-7.3-7.3-7.3H173.6c-4,0-7.3,3.3-7.3,7.3C166.3,263.8,169.6,267.1,173.6,267.1z"/>
	</g>
	<g>
		
			<pattern  id="SVGID_00000116926595383609847860000009691495670278031027_" xlink:href="#New_Pattern_Swatch_1" patternTransform="matrix(1 0 0 1 -10.7064 -4.4432)">
		</pattern>
		<path style="fill:url(#SVGID_00000116926595383609847860000009691495670278031027_);" d="M173.6,314.3h127c4,0,7.3-3.3,7.3-7.3
			s-3.3-7.3-7.3-7.3h-127c-4,0-7.3,3.3-7.3,7.3S169.6,314.3,173.6,314.3z"/>
	</g>
	<g>
		
			<pattern  id="SVGID_00000170995943803133648360000012379276956299450023_" xlink:href="#New_Pattern_Swatch_1" patternTransform="matrix(1 0 0 1 -10.7064 -4.4432)">
		</pattern>
		<path style="fill:url(#SVGID_00000170995943803133648360000012379276956299450023_);" d="M173.6,361.5h127c4,0,7.3-3.3,7.3-7.3
			s-3.3-7.3-7.3-7.3h-127c-4,0-7.3,3.3-7.3,7.3S169.6,361.5,173.6,361.5z"/>
	</g>
	<g>
		
			<pattern  id="SVGID_00000016049968739328058620000003154369819467827592_" xlink:href="#New_Pattern_Swatch_1" patternTransform="matrix(1 0 0 1 -10.7064 -4.4432)">
		</pattern>
		<path style="fill:url(#SVGID_00000016049968739328058620000003154369819467827592_);" d="M173.6,408.8h127c4,0,7.3-3.3,7.3-7.3
			s-3.3-7.3-7.3-7.3h-127c-4,0-7.3,3.3-7.3,7.3S169.6,408.8,173.6,408.8z"/>
	</g>
	<g>
		
			<pattern  id="SVGID_00000178165530948882300380000003855191837936016011_" xlink:href="#New_Pattern_Swatch_1" patternTransform="matrix(1 0 0 1 -10.7064 -4.4432)">
		</pattern>
		<path style="fill:url(#SVGID_00000178165530948882300380000003855191837936016011_);" d="M173.6,456h127c4,0,7.3-3.3,7.3-7.3
			c0-4-3.3-7.3-7.3-7.3h-127c-4,0-7.3,3.3-7.3,7.3C166.3,452.8,169.6,456,173.6,456z"/>
	</g>
	<g>
		
			<pattern  id="SVGID_00000137832963560361374780000000245831815569262507_" xlink:href="#New_Pattern_Swatch_1" patternTransform="matrix(1 0 0 1 -10.7064 -4.4432)">
		</pattern>
		<path style="fill:url(#SVGID_00000137832963560361374780000000245831815569262507_);" d="M488.3,488.7H173.6c-4,0-7.3,3.3-7.3,7.3
			s3.3,7.3,7.3,7.3h314.7c4,0,7.3-3.3,7.3-7.3S492.3,488.7,488.3,488.7z"/>
	</g>
	<path class="st2" d="M488.3,299.4H340.8c-4,0-7.3,3.3-7.3,7.3v142.1c0,4,3.3,7.3,7.3,7.3h147.5c4,0,7.3-3.3,7.3-7.3V306.6
		C495.6,302.6,492.3,299.4,488.3,299.4z M481,441.5H348.1V313.9H481V441.5z"/>
</g>
</svg>
