<?xml version="1.0" encoding="iso-8859-1"?>
<!-- Generator: Adobe Illustrator 18.1.1, SVG Export Plug-In . SVG Version: 6.00 Build 0)  -->
<svg version="1.1" id="Capa_1" xmlns="http://www.w3.org/2000/svg" xmlns:xlink="http://www.w3.org/1999/xlink" x="0px" y="0px"
	 viewBox="0 0 306.85 306.85" style="enable-background:new 0 0 306.85 306.85;" xml:space="preserve">
<g>
	<g>
		<g>
			<path style="fill:#fff;" d="M201.381,0H12.635v188.763h188.752V0H201.381z M41.739,150.173
				c6.799-23.981,22.181-65.949,35.816-65.949c2.034,0,4.134,1.088,6.271,3.214c18.139,18.15,27.875,48.478,31.655,62.74H41.739
				V150.173z M185.287,150.173h-3.552c0,0-6.739,0.272-6.853,0h-48.614c2.551-8.621,10.628-32.64,22.36-35.642
				c0.647-0.169,1.284-0.25,1.92-0.25c9.29,0,17.41,18.172,24.334,35.892h6.853c-0.87-2.393-3.062-8.757-3.492-9.807
				c-7.027-17.133-15.376-32.836-27.696-32.836c-1.164,0-2.382,0.147-3.573,0.457c-11.667,2.986-19.608,18.667-24.236,31.291
				l-1.789,4.911l-1.556-4.993c-5.314-17.046-14.963-40.695-30.801-56.545c-3.432-3.432-7.152-5.183-11.041-5.183
				c-20.734,0-37.171,52.226-42.822,72.704h-5.999V12.042h156.563v138.13H185.287z"/>
		</g>
		<g>
			<path style="fill:#fff;" d="M148.372,76.065c12.145,0,22.028-9.894,22.028-22.055c0-12.145-9.877-22.028-22.028-22.028
				c-12.156,0-22.045,9.883-22.045,22.028C126.333,66.172,136.216,76.065,148.372,76.065z M148.372,38.617
				c8.485,0,15.393,6.908,15.393,15.398c0,8.501-6.908,15.42-15.393,15.42c-8.496,0-15.409-6.918-15.409-15.42
				C132.963,45.525,139.876,38.617,148.372,38.617z"/>
		</g>
		<g>
			<path style="fill:#fff;" d="M204.716,200.386c-0.239-1.648-0.511-3.269-0.783-4.895h-6.87
				c0.772,4.411,1.42,9.018,2.002,13.592l6.641,1.675C205.444,208.213,204.873,201.517,204.716,200.386z"/>
		</g>
		<g>
			<path style="fill:#fff;" d="M261.276,69.859l-55.152-13.821v12.417l36.616,9.176l-33.586,133.986l-3.454-0.865
				c0,0-6.598-1.376-6.641-1.675l-47.151-11.803c0.31-0.533,0.674-1.142,1.072-1.789H35.207l-2.904,11.585l183.095,45.889
				L261.276,69.859z"/>
		</g>
		<g>
			<path style="fill:#fff;" d="M218.096,114.721c2.6-10.367-2.649-20.87-11.966-25.27v7.74c4.683,3.628,7.065,9.807,5.537,15.915
				c-0.865,3.481-2.899,6.331-5.537,8.371v7.696C211.862,126.442,216.431,121.356,218.096,114.721z"/>
		</g>
		<g>
			<path style="fill:#fff;" d="M254.657,113.861l-2.883,11.689l23.867,6.086l-34.125,133.855l-3.448-0.881
				c0,0-6.598-1.398-6.636-1.697l-12.847-3.285L73.977,223.736l-9.295,36.474l182.905,46.64l46.629-182.916L254.657,113.861z"/>
		</g>
		<g>
			<path style="fill:#fff;" d="M237.116,254.238c-1.73-12.298-4.259-24.008-9.295-31.383l-2.442,9.91
				c2.975,7.93,4.694,19.151,6.054,30.143l6.636,1.697C237.818,262.07,237.268,255.353,237.116,254.238z"/>
		</g>
		<g>
			<path style="fill:#fff;" d="M239.667,174.73l-2.197,8.942c6.385-2.502,11.553-7.903,13.369-15.044
				c1.855-7.283-0.18-14.637-4.765-19.912l-2.219,9.007c1.099,2.866,1.371,6.07,0.56,9.257
				C243.616,170.101,241.919,172.745,239.667,174.73z"/>
		</g>
	</g>
</g>
<g>
</g>
<g>
</g>
<g>
</g>
<g>
</g>
<g>
</g>
<g>
</g>
<g>
</g>
<g>
</g>
<g>
</g>
<g>
</g>
<g>
</g>
<g>
</g>
<g>
</g>
<g>
</g>
<g>
</g>
</svg>
