<svg id="Layer_1" data-name="Layer 1" xmlns="http://www.w3.org/2000/svg" viewBox="45 58.62 110 82.76"><defs><style>.cls-1{fill:none;}.cls-2{fill:#62358c;}</style></defs><title>WEB ICONS PURPLE</title><circle class="cls-1" cx="100" cy="100" r="100"></circle><path class="cls-2" d="M67,135.1V58.62H80.62v9.43H93.19V58.62h13.62v9.43h12.57V58.62H133V135.1h20.9a1.09,1.09,0,0,1,1.1,1.09v4.09a1.1,1.1,0,0,1-1.1,1.1H46.1a1.1,1.1,0,0,1-1.1-1.1v-4.09a1.09,1.09,0,0,1,1.1-1.09Zm19.9-20v20h25.15v-20a12.2,12.2,0,0,0-3.74-8.89,12.28,12.28,0,0,0-17.67,0A12.2,12.2,0,0,0,86.9,115.12Z"></path></svg>